<svg xmlns="http://www.w3.org/2000/svg" xmlns:xlink="http://www.w3.org/1999/xlink" viewBox="0 0 83.02 88.15"><defs><symbol id="a" data-name="a" viewBox="0 0 257.7 273.6"><path d="M97.4,76.4a7.3,7.3,0,1,0,7.3,7.3A7.15,7.15,0,0,0,97.4,76.4Z"/><path d="M159.2,91a7.3,7.3,0,1,0-7.3-7.3A7.28,7.28,0,0,0,159.2,91Z"/><path d="M135,102h-9l5.7-16.7a5,5,0,1,0-9.4-3.2l-8,23.3a4.85,4.85,0,0,0,.7,4.5,5.21,5.21,0,0,0,4.1,2.1h16a5,5,0,0,0,5-5A5.1,5.1,0,0,0,135,102Z"/><path d="M255.6,79.4a5.34,5.34,0,0,0-4.6-.6l-16.7,6.3V70.9a5.21,5.21,0,0,0-2.5-4.4,4.74,4.74,0,0,0-5,.1L207.1,78.5v-.2a78.3,78.3,0,1,0-156.6,0v.3l-19.3-12a4.92,4.92,0,0,0-5.1-.1,5.09,5.09,0,0,0-2.6,4.4V85.1L6.8,78.8a4.75,4.75,0,0,0-4.6.6A5.16,5.16,0,0,0,0,83.5v126a5.11,5.11,0,0,0,3.2,4.7l15.9,6.3v19.7c0,14.3,10.6,27.5,24.5,30.9,2.6.6,7.6,1.7,10.4,1.7a30.83,30.83,0,0,0,19.2-6.6,31.78,31.78,0,0,0,12-19.7s26.2,10.2,34.8,13.6c7,2.8,10.7,3,18.1.1,8.6-3.4,34.5-13.7,34.5-13.7a31.89,31.89,0,0,0,31.3,27.1c2.8,0,8.6-1.2,11.4-1.9,14.7-3.9,23.5-16.3,23.5-30.7V220.4l15.7-6.2a5.11,5.11,0,0,0,3.2-4.7V83.5A5.07,5.07,0,0,0,255.6,79.4Zm-31.3,9.5-39,14.6,39-23.7Zm-190.7-9,36.1,22.5L33.6,88.9ZM10.1,90.7l105.1,40.2.4,116.3-30-11.3V215.8a14.72,14.72,0,0,0-11.7-14.6,13.34,13.34,0,0,0-7.2.5,14.4,14.4,0,0,0-14.4-13.2,15.59,15.59,0,0,0-5.3,1,14.45,14.45,0,0,0-14.8-9.6c-7.5.6-13.2,7.2-13.2,14.8v15.1l-9-3.6V90.7Zm57,167.6A22,22,0,0,1,48.2,262c-12.1-2.9-19.1-12-19.1-21.8V194.3a4.4,4.4,0,0,1,8.8,0v29.2a5,5,0,0,0,10,0V202.9a4.4,4.4,0,0,1,8.8,0v30.3a5,5,0,0,0,10,0V215.4a4.4,4.4,0,0,1,8.8,0V241A20.86,20.86,0,0,1,67.1,258.3ZM114,118.7c-14.3-7.2-53.2-33.6-53.2-33.6-.2-2.2-.3-4.5-.3-6.7a68.3,68.3,0,1,1,136.6,0c0,2.1-.1,4.3-.3,6.4,0,0-42,26.4-56.2,34C131.8,123.5,123.5,123.4,114,118.7ZM228.8,241a21.73,21.73,0,0,1-16.1,21l-3.1.8a21.68,21.68,0,0,1-27.4-21V216.2a4.4,4.4,0,0,1,8.8,0V234a5,5,0,0,0,10,0V203.7a4.4,4.4,0,0,1,8.8,0v20.6a5,5,0,0,0,10,0V196.9a4.4,4.4,0,1,1,8.8,0V241Zm18.9-34.9-8.9,3.5V196.9a14.37,14.37,0,0,0-27.3-6.3,14.37,14.37,0,0,0-20.3,11.9,13.27,13.27,0,0,0-4.5-.7,14.4,14.4,0,0,0-14.4,14.4V236l-30.2,11.8v-117L247.7,90.7Z"/></symbol></defs><title>reader</title><g id="Layer_2" data-name="Layer 2"><g id="Layer_1-2" data-name="Layer 1"><use width="257.7" height="273.6" transform="scale(0.32)" xlink:href="#a"/></g></g></svg>